<?xml version="1.0" encoding="utf-8"?>
<!-- Generator: Adobe Illustrator 17.1.0, SVG Export Plug-In . SVG Version: 6.00 Build 0)  -->
<!DOCTYPE svg PUBLIC "-//W3C//DTD SVG 1.1//EN" "http://www.w3.org/Graphics/SVG/1.1/DTD/svg11.dtd">
<svg version="1.1" id="Layer_1" xmlns="http://www.w3.org/2000/svg" xmlns:xlink="http://www.w3.org/1999/xlink" x="0px" y="0px"
	 viewBox="0 0 100 100" enable-background="new 0 0 100 100" xml:space="preserve">
<path fill-rule="evenodd" clip-rule="evenodd" fill="#FFFFFF" d="M90,60H10C4.5,60,0,55.5,0,50s4.5-10,10-10h80c5.5,0,10,4.5,10,10
	S95.5,60,90,60z M90,20H10C4.5,20,0,15.5,0,10C0,4.5,4.5,0,10,0h80c5.5,0,10,4.5,10,10C100,15.5,95.5,20,90,20z M10,80h80
	c5.5,0,10,4.5,10,10c0,5.5-4.5,10-10,10H10c-5.5,0-10-4.5-10-10C0,84.5,4.5,80,10,80z"/>
</svg>
